<svg width="24" height="24" viewBox="0 0 24 24" fill="none" xmlns="http://www.w3.org/2000/svg">
<path d="M1.41856 15.124C1.63723 15.4273 1.8799 15.7103 2.14656 15.973C2.21396 16.0236 2.29734 16.0481 2.38138 16.0421C2.46541 16.0361 2.54448 16.0001 2.60405 15.9405C2.66363 15.8809 2.69971 15.8019 2.70568 15.7178C2.71166 15.6338 2.68711 15.5504 2.63656 15.483C2.4044 15.2358 2.19051 14.9722 1.99656 14.694C1.72184 14.2609 1.46235 13.8183 1.21856 13.367C1.12856 13.207 1.02856 13.037 0.948564 12.867C0.894377 12.7552 0.866986 12.6323 0.868564 12.508L1.23856 11.978L2.41656 10.401C3.47225 9.17342 4.71972 8.12485 6.11056 7.296C7.46224 6.40853 8.96983 5.7852 10.5536 5.459C11.2125 5.34287 11.8818 5.29594 12.5506 5.319C13.2418 5.35123 13.9278 5.45512 14.5976 5.629C14.656 5.64518 14.718 5.64384 14.7757 5.62515C14.8334 5.60647 14.8844 5.57125 14.9223 5.52388C14.9602 5.4765 14.9834 5.41905 14.9889 5.35863C14.9945 5.29822 14.9822 5.2375 14.9536 5.184C14.9339 5.14871 14.9072 5.11776 14.8753 5.09301C14.8433 5.06827 14.8067 5.05023 14.7676 5.04C13.3509 4.58215 11.855 4.42214 10.3736 4.57C8.64885 4.80772 6.99281 5.4031 5.51156 6.318C4.00416 7.2125 2.67405 8.37651 1.58756 9.752L0.439564 11.47C0.308917 11.6523 0.195115 11.8461 0.0995639 12.049C0.0414384 12.1745 0.00751205 12.3099 -0.00043613 12.448C-0.00643613 12.675 0.0375639 12.9 0.129564 13.107C0.246231 13.343 0.379564 13.5693 0.529564 13.786C0.819564 14.236 1.09856 14.695 1.41856 15.124Z" fill="#500760"/>
<path d="M9.72574 9.51337C10.2201 9.2249 10.7503 9.00298 11.3027 8.85337C11.5727 8.77537 11.8457 8.71237 12.1217 8.66437C12.2884 8.64437 12.4547 8.64437 12.6207 8.66437C12.7013 8.67633 12.7834 8.65712 12.8503 8.61067C12.9171 8.56423 12.9638 8.49402 12.9807 8.41437C12.9956 8.33492 12.9788 8.25282 12.9339 8.18557C12.8891 8.11833 12.8198 8.07125 12.7407 8.05437C12.524 8.00703 12.3026 7.98389 12.0807 7.98537C11.7717 7.98537 11.4727 7.98537 11.1627 8.04537C10.4732 8.08846 9.79691 8.2544 9.16574 8.53537C8.54977 8.82122 8.00473 9.23991 7.56974 9.76137C7.12174 10.2926 6.80656 10.9228 6.65024 11.5999C6.49392 12.277 6.50095 12.9815 6.67074 13.6554C6.67684 13.7002 6.69184 13.7434 6.71485 13.7824C6.73787 13.8214 6.76843 13.8554 6.80476 13.8824C6.84109 13.9094 6.88244 13.9289 6.9264 13.9397C6.97035 13.9505 7.01603 13.9524 7.06074 13.9454C7.15216 13.9306 7.23401 13.8802 7.28837 13.8053C7.34272 13.7303 7.36515 13.6368 7.35074 13.5454C7.29906 12.9976 7.36887 12.4452 7.55521 11.9275C7.74155 11.4098 8.03981 10.9396 8.42874 10.5504C8.80525 10.1395 9.2431 9.78931 9.72674 9.51237M18.1417 7.75537C18.5117 7.98537 19.4497 8.53537 19.6197 8.66437C20.0944 9.0357 20.5437 9.43503 20.9677 9.86237C21.3811 10.2824 21.7637 10.7284 22.1157 11.2004C22.3611 11.5184 22.5844 11.8514 22.7857 12.1994C22.8957 12.3694 22.9637 12.5654 22.9847 12.7684C22.9847 12.926 22.9434 13.0808 22.8647 13.2174C22.7609 13.4146 22.644 13.6047 22.5147 13.7864C22.2563 14.1878 21.9625 14.5653 21.6367 14.9144C21.1113 15.4495 20.5547 15.953 19.9697 16.4224C19.7146 16.6518 19.4403 16.8589 19.1497 17.0414C18.6917 17.3414 18.2017 17.6004 17.7227 17.8604C17.2437 18.1204 16.5447 18.5194 15.9357 18.7984C15.5484 18.9884 15.1491 19.1484 14.7377 19.2784C13.6304 19.5972 12.485 19.7651 11.3327 19.7774C10.1696 19.799 9.00841 19.6713 7.87774 19.3974C7.68103 19.3482 7.49024 19.2778 7.30874 19.1874C6.82974 18.9674 6.38074 18.6684 5.91174 18.4494C5.82994 18.4117 5.73662 18.4076 5.65183 18.438C5.56704 18.4683 5.49755 18.5307 5.45827 18.6118C5.41899 18.6928 5.41306 18.7861 5.44176 18.8714C5.47045 18.9568 5.53148 19.0275 5.61174 19.0684C6.07174 19.3084 6.51074 19.6274 6.97974 19.8664C7.20441 19.981 7.43741 20.0744 7.67874 20.1464C8.86474 20.4864 10.0887 20.6734 11.3227 20.7064C12.5698 20.7411 13.8158 20.6065 15.0267 20.3064C15.4928 20.1766 15.9498 20.0163 16.3947 19.8264C17.0447 19.5474 17.6527 19.2074 18.2717 18.8784C18.7887 18.6179 19.292 18.3312 19.7797 18.0194C20.1307 17.8025 20.4644 17.5587 20.7777 17.2904C21.3684 16.7737 21.9244 16.2214 22.4457 15.6334C22.8197 15.2294 23.1524 14.7934 23.4437 14.3254C23.6137 14.0454 23.7604 13.7524 23.8837 13.4464C23.9787 13.1924 24.0167 12.9194 23.9937 12.6484C23.9503 12.291 23.8236 11.9488 23.6237 11.6494C23.3833 11.2994 23.1197 10.966 22.8347 10.6514C22.4358 10.1645 22.002 9.70734 21.5367 9.28337C21.075 8.86251 20.5917 8.46597 20.0887 8.09537L18.6717 7.27637L18.1417 7.75537Z" fill="#500760"/>
<path d="M18.6718 7.27592H18.7318L23.6538 2.72292C23.7177 2.65754 23.7534 2.5698 23.7534 2.47842C23.7534 2.38705 23.7177 2.2993 23.6538 2.23392C23.5873 2.17207 23.4997 2.1377 23.4088 2.1377C23.318 2.1377 23.2304 2.17207 23.1638 2.23392L16.0558 8.25392C15.1468 9.01392 14.2388 9.75193 13.3198 10.5009C11.9518 11.6189 10.5738 12.7279 9.20585 13.8559C8.21539 14.6486 7.24346 15.4642 6.29085 16.3019C4.91285 17.4799 3.56485 18.7179 2.16685 19.8859C1.57785 20.3859 0.968848 20.8849 0.359848 21.3339C0.308514 21.3855 0.27695 21.4535 0.270684 21.5259C0.264417 21.5984 0.283846 21.6708 0.32557 21.7304C0.367293 21.79 0.428653 21.8331 0.498907 21.852C0.56916 21.8709 0.643831 21.8645 0.709848 21.8339C1.35885 21.3839 1.99785 20.9639 2.61685 20.4459C4.06385 19.3369 5.47185 18.1789 6.90985 17.0709C7.31985 16.7509 11.7028 13.3269 12.8998 12.3579C13.7598 11.6589 15.9658 9.75192 15.9658 9.75192C16.2358 9.52192 16.5048 9.29293 16.7648 9.05293L18.1618 7.75492L18.6718 7.27592ZM15.9058 11.2799C15.9948 11.6289 16.0188 11.9899 15.9758 12.3479C15.8656 13.3542 15.4747 14.3091 14.8478 15.1039C14.4828 15.5909 14.0068 15.9839 13.4598 16.2519C12.6267 16.6373 11.6903 16.7392 10.7938 16.5419C10.3619 16.4617 9.94 16.3343 9.53585 16.1619C9.01585 15.8419 8.35785 16.3619 8.88585 16.6919C9.41785 17.0189 9.99285 17.2719 10.5938 17.4399C11.7069 17.7663 12.8965 17.7171 13.9788 17.2999C14.6944 16.9603 15.3126 16.4454 15.7758 15.8029C16.2267 15.1803 16.5493 14.4743 16.7248 13.7259C16.8537 13.2004 16.9109 12.6598 16.8948 12.1189C16.8793 11.7434 16.8051 11.3725 16.6748 11.0199L16.4148 10.5509C15.9748 9.92192 15.5468 10.6109 15.8058 11.0509L15.9058 11.2799Z" fill="#500760"/>
</svg>
